<svg width="256" height="256" viewBox="0 0 256 256" fill="none" xmlns="http://www.w3.org/2000/svg"><path d="M0 0h256v256H0V0Z" fill="#fff"/><g clip-path="url(#a)"><path d="M128.332 149.242c11.453 0 20.737-9.284 20.737-20.737 0-11.453-9.284-20.737-20.737-20.737-11.453 0-20.738 9.284-20.738 20.737 0 11.453 9.285 20.737 20.738 20.737Z" fill="#61DAFB"/><path d="M128.332 170.991c61.455 0 111.274-19.021 111.274-42.486 0-23.465-49.819-42.486-111.274-42.486S17.058 105.04 17.058 128.505c0 23.465 49.819 42.486 111.274 42.486Z" stroke="#61DAFB"/><path d="M91.538 149.748c30.727 53.222 72.11 86.856 92.431 75.123 20.321-11.732 11.885-64.388-18.843-117.609-30.727-53.222-72.11-86.855-92.431-75.123C52.374 43.871 60.81 96.527 91.538 149.748Z" stroke="#61DAFB"/><path d="M91.538 107.262C60.81 160.483 52.374 213.139 72.695 224.871c20.32 11.732 61.704-21.901 92.431-75.123 30.728-53.221 39.164-105.877 18.843-117.609s-61.704 21.901-92.431 75.123Z" stroke="#61DAFB"/></g><defs><clipPath id="a"><path fill="#fff" transform="translate(12 25)" d="M0 0h232.664v207H0z"/></clipPath></defs></svg>
